<svg width="59" height="64" viewBox="0 0 59 64" fill="none" xmlns="http://www.w3.org/2000/svg">
<path d="M4.69205 18.2082L26.8373 29.1022C28.5135 29.9342 30.4865 29.9342 32.1627 29.1022L54.3081 18.2082M29.8969 30.4237V60.1413M2 21.9255V42.0744C2 45.5937 3.89136 48.846 6.96159 50.6057L24.5383 60.6802C27.6087 62.4399 31.3913 62.4399 34.4617 60.6802L52.0383 50.6057C55.1087 48.846 57 45.5937 57 42.0744V21.9255C57 18.4061 55.1087 15.1539 52.0383 13.3942L34.4617 3.31982C31.3913 1.56006 27.6087 1.56006 24.5383 3.31982L6.96159 13.3942C3.89136 15.1539 2 18.4061 2 21.9255Z" stroke="#0D775E" stroke-width="4"/>
</svg>
