<svg width="19" height="27" viewBox="0 0 19 27" fill="none" xmlns="http://www.w3.org/2000/svg">
<path d="M14.4629 0.51266C13.7468 -0.170887 12.5865 -0.170887 11.8704 0.51266L9.49997 2.7754L7.1295 0.51266C6.4134 -0.170887 5.25316 -0.170887 4.53707 0.51266C3.82098 1.19621 3.82098 2.30372 4.53707 2.98727L8.20369 6.48725C8.5618 6.82908 9.03089 7 9.49985 7C9.96881 7 10.438 6.82908 10.796 6.48725L14.4626 2.98727C15.1791 2.3036 15.1791 1.19621 14.4629 0.51266Z" fill="#F24973"/>
<path d="M10.4141 6.48725L14.4141 2.98727C15.1953 2.30372 15.1953 1.19621 14.4141 0.51266C13.6329 -0.170887 12.3672 -0.170887 11.586 0.51266L9 2.7754V7C9.51186 7 10.0236 6.82908 10.4141 6.48725Z" fill="#D92C49"/>
<path d="M16.3995 26.9984H2.33693C1.36532 26.9984 0.579102 25.7014 0.579102 24.0985V6.69878C0.579102 5.09588 1.36532 3.79883 2.33693 3.79883H16.3995C17.3712 3.79883 18.1574 5.09588 18.1574 6.69878V24.0985C18.1574 25.7014 17.3712 26.9984 16.3995 26.9984Z" fill="#8AE68A"/>
<path d="M16.2 4H9V15.5V27H16.2C17.1949 27 18 25.7141 18 24.125V6.875C18 5.28589 17.1949 4 16.2 4Z" fill="#60BF80"/>
</svg>
