<svg width="60" height="57" viewBox="0 0 60 57" fill="none" xmlns="http://www.w3.org/2000/svg">
<path d="M22.8524 17.6994H40.4306C41.4023 17.6994 42.1885 16.9078 42.1885 15.9295V8.84997C42.1885 7.87169 41.4023 7.08008 40.4306 7.08008H22.8524C21.8808 7.08008 21.0945 7.87169 21.0945 8.84997V15.9295C21.0945 16.9078 21.8808 17.6994 22.8524 17.6994Z" fill="#FFD580"/>
<path d="M11.0627 0.51849C11.7493 -0.17283 12.8617 -0.17283 13.5483 0.51849L15.8212 2.80696L18.0941 0.51849C18.7807 -0.17283 19.8932 -0.17283 20.5798 0.51849C21.2664 1.20981 21.2664 2.32991 20.5798 3.02123L17.0641 6.56102C16.7208 6.90674 16.271 7.0796 15.8213 7.0796C15.3717 7.0796 14.9218 6.90674 14.5785 6.56102L11.0629 3.02123C10.3759 2.3298 10.3759 1.20981 11.0627 0.51849Z" fill="#F24973"/>
<path d="M14.5774 6.56102L11.0618 3.02123C10.3752 2.32992 10.3752 1.20981 11.0618 0.51849C11.7484 -0.17283 12.8608 -0.17283 13.5474 0.51849L15.8203 2.80696V7.0796C15.3704 7.0796 14.9207 6.90674 14.5774 6.56102Z" fill="#D92C49"/>
<path d="M8.78893 17.6982H22.8515C23.8232 17.6982 24.6094 16.9066 24.6094 15.9283V5.30895C24.6094 4.33068 23.8232 3.53906 22.8515 3.53906H8.78893C7.81732 3.53906 7.0311 4.33068 7.0311 5.30895V15.9283C7.0311 16.9066 7.81732 17.6982 8.78893 17.6982Z" fill="#8AE68A"/>
<path d="M8.789 3.54004H15.8203V17.6992H8.789C7.81739 17.6992 7.03117 16.9076 7.03117 15.9293V5.30993C7.03117 4.33165 7.81739 3.54004 8.789 3.54004Z" fill="#60BF80"/>
<path d="M49.4461 14.1587L52.3191 3.53978H58.2422C59.2138 3.53978 60 2.74817 60 1.76989C60 0.791614 59.2138 0 58.2422 0H50.9767C50.1836 0 49.4901 0.534035 49.2807 1.305L45.4492 15.4641L49.4461 14.1587Z" fill="#80334D"/>
<path d="M12.3055 46.0177H40.4307C41.3989 46.0177 42.1886 45.2243 42.1886 44.2478C42.1886 43.3334 41.5088 42.5764 40.6092 42.4865C39.6445 42.3897 38.9372 41.522 39.0368 40.5489C39.1295 39.5776 39.9947 38.9017 40.9594 38.9639C43.6648 39.2353 45.7041 41.5064 45.7041 44.2476C45.7041 47.1755 43.3385 49.5573 40.4306 49.5573H12.3054C11.3338 49.5573 10.5475 48.7657 10.5475 47.7874C10.5475 46.8091 11.3339 46.0177 12.3055 46.0177Z" fill="#80334D"/>
<path d="M12.3056 46.0176H22.8525V49.5574H12.3056C11.334 49.5574 10.5477 48.7657 10.5477 47.7875C10.5477 46.8092 11.334 46.0176 12.3056 46.0176Z" fill="#59243F"/>
<path d="M40.4307 42.4429C41.217 42.4429 41.9174 41.9157 42.1268 41.1396L49.4492 14.1592H1.75854C1.24349 14.1592 0.752589 14.3874 0.41614 14.7849C0.0830907 15.1824 -0.0610543 15.7062 0.0247276 16.2195L3.54038 37.4582C3.67082 38.248 4.30938 38.8495 5.10251 38.9291C45.363 42.9397 40.0086 42.4429 40.4307 42.4429Z" fill="#F24973"/>
<path d="M1.75861 14.1592H22.8525V40.7002C18.2364 40.2385 12.4332 39.6593 5.10258 38.9291C4.30945 38.8495 3.67089 38.2481 3.54046 37.4582L0.0248025 16.2195C-0.0609795 15.7061 0.0831619 15.1824 0.416212 14.7849C0.75266 14.3874 1.24368 14.1592 1.75861 14.1592Z" fill="#D92C49"/>
<path d="M12.3056 56.636C15.2135 56.636 17.5791 54.2541 17.5791 51.3263C17.5791 48.3984 15.2135 46.0166 12.3056 46.0166C9.3977 46.0166 7.03214 48.3984 7.03214 51.3263C7.03214 54.2541 9.3977 56.636 12.3056 56.636Z" fill="#59243F"/>
<path d="M12.3063 53.0964C11.3353 53.0964 10.5481 52.304 10.5481 51.3265C10.5481 50.349 11.3353 49.5566 12.3063 49.5566C13.2773 49.5566 14.0645 50.349 14.0645 51.3265C14.0645 52.304 13.2773 53.0964 12.3063 53.0964Z" fill="#D9E5FF"/>
<path d="M36.915 56.636C39.8229 56.636 42.1885 54.2541 42.1885 51.3263C42.1885 48.3984 39.8229 46.0166 36.915 46.0166C34.0071 46.0166 31.6415 48.3984 31.6415 51.3263C31.6415 54.2541 34.0071 56.636 36.915 56.636Z" fill="#80334D"/>
<path d="M36.9157 53.0964C35.9446 53.0964 35.1575 52.304 35.1575 51.3265C35.1575 50.349 35.9446 49.5566 36.9157 49.5566C37.8867 49.5566 38.6738 50.349 38.6738 51.3265C38.6738 52.304 37.8867 53.0964 36.9157 53.0964Z" fill="#ECF2FF"/>
<path d="M12.3053 31.8586C13.2771 31.8586 14.0635 31.067 14.0635 30.0887V23.0091C14.0635 22.0309 13.2771 21.2393 12.3053 21.2393C11.3335 21.2393 10.5471 22.0309 10.5471 23.0091V30.0887C10.5471 31.067 11.3335 31.8586 12.3053 31.8586Z" fill="white"/>
<path d="M33.4 31.8586C34.3718 31.8586 35.1582 31.067 35.1582 30.0887V23.0091C35.1582 22.0309 34.3718 21.2393 33.4 21.2393C32.4282 21.2393 31.6419 22.0309 31.6419 23.0091V30.0887C31.6419 31.067 32.4282 31.8586 33.4 31.8586Z" fill="white"/>
<path d="M22.8512 31.8586C23.823 31.8586 24.6094 31.067 24.6094 30.0887V23.0091C24.6094 22.0309 23.823 21.2393 22.8512 21.2393C21.8794 21.2393 21.093 22.0309 21.093 23.0091V30.0887C21.093 31.067 21.8794 31.8586 22.8512 31.8586Z" fill="white"/>
<path d="M21.0944 30.0877V23.0082C21.0944 22.0299 21.8807 21.2383 22.8525 21.2383V31.8576C21.8807 31.8576 21.0944 31.066 21.0944 30.0877Z" fill="#E9ECF4"/>
</svg>
