<svg width="104" height="31" viewBox="0 0 104 31" fill="none" xmlns="http://www.w3.org/2000/svg">
<path d="M3.22366 9.29372L13.2897 14.196C14.0516 14.5704 14.9484 14.5704 15.7103 14.196L25.7764 9.29372M14.6804 14.7907V28.1636M2 10.9665V20.0335C2 21.6172 2.85971 23.0807 4.25527 23.8726L12.2447 28.4061C13.6403 29.198 15.3597 29.198 16.7553 28.4061L24.7447 23.8726C26.1403 23.0807 27 21.6172 27 20.0335V10.9665C27 9.38275 26.1403 7.91928 24.7447 7.12739L16.7553 2.59392C15.3597 1.80203 13.6403 1.80203 12.2447 2.59392L4.25527 7.12739C2.85971 7.91928 2 9.38275 2 10.9665Z" stroke="#0D775E" stroke-width="2.5"/>
<path d="M51.2919 9.87738L47.6522 22.6359H44.5724L42.1273 13.5514L39.5702 22.6359L36.5091 22.6542L33 9.87738H35.7998L38.0956 19.7844L40.7461 9.87738H43.6578L46.159 19.7296L48.4735 9.87738H51.2919Z" fill="black"/>
<path d="M52.7369 12.8202C52.7991 11.6017 53.2346 10.6634 54.0434 10.0053C54.8647 9.33511 55.9411 9 57.2725 9C58.1809 9 58.9586 9.15842 59.6057 9.47525C60.2527 9.77989 60.738 10.2003 61.0616 10.7365C61.3975 11.2605 61.5655 11.8576 61.5655 12.5278C61.5655 13.2955 61.3602 13.9474 60.9496 14.4836C60.5514 15.0076 60.0723 15.361 59.5123 15.5438V15.6169C60.2341 15.8362 60.794 16.2262 61.1922 16.7867C61.6028 17.3473 61.8082 18.0662 61.8082 18.9436C61.8082 19.6747 61.634 20.3267 61.2855 20.8994C60.9496 21.4721 60.4456 21.923 59.7736 22.252C59.1141 22.5689 58.3178 22.7273 57.3845 22.7273C55.9784 22.7273 54.8336 22.38 53.9501 21.6854C53.0666 20.9908 52.6 19.9672 52.5502 18.6146H55.0887C55.1136 19.2117 55.3189 19.693 55.7046 20.0586C56.1028 20.412 56.6441 20.5887 57.3285 20.5887C57.9631 20.5887 58.4484 20.4181 58.7844 20.0769C59.1328 19.7235 59.307 19.2726 59.307 18.7242C59.307 17.9931 59.0706 17.4691 58.5977 17.1523C58.1249 16.8355 57.3907 16.677 56.3952 16.677H55.854V14.575H56.3952C58.1622 14.575 59.0457 13.9962 59.0457 12.8385C59.0457 12.3145 58.8839 11.9063 58.5604 11.6138C58.2493 11.3214 57.7951 11.1752 57.1979 11.1752C56.613 11.1752 56.1588 11.3336 55.8353 11.6504C55.5242 11.9551 55.3438 12.345 55.294 12.8202H52.7369Z" fill="black"/>
<path d="M63.6865 16.2566C63.6865 15.0137 63.9727 13.8987 64.5451 12.9116C65.1175 11.9124 65.8952 11.1325 66.8782 10.572C67.8737 10.0114 68.975 9.73115 70.182 9.73115C71.6005 9.73115 72.8387 10.0663 73.8964 10.7365C74.9541 11.4067 75.7256 12.3572 76.2109 13.5879H74.1763C73.8155 12.8202 73.2929 12.2292 72.6085 11.8149C71.9365 11.4006 71.1277 11.1934 70.182 11.1934C69.2736 11.1934 68.4586 11.4006 67.7368 11.8149C67.0151 12.2292 66.4489 12.8202 66.0383 13.5879C65.6277 14.3435 65.4224 15.233 65.4224 16.2566C65.4224 17.268 65.6277 18.1576 66.0383 18.9253C66.4489 19.6808 67.0151 20.2657 67.7368 20.6801C68.4586 21.0944 69.2736 21.3015 70.182 21.3015C71.1277 21.3015 71.9365 21.1005 72.6085 20.6983C73.2929 20.284 73.8155 19.693 74.1763 18.9253H76.2109C75.7256 20.1439 74.9541 21.0883 73.8964 21.7585C72.8387 22.4165 71.6005 22.7456 70.182 22.7456C68.975 22.7456 67.8737 22.4714 66.8782 21.923C65.8952 21.3625 65.1175 20.5887 64.5451 19.6016C63.9727 18.6146 63.6865 17.4996 63.6865 16.2566Z" fill="#0D775E"/>
<path d="M78.1046 17.591C78.1046 16.5674 78.3162 15.6717 78.7393 14.904C79.1623 14.1241 79.741 13.5209 80.4751 13.0944C81.2217 12.6679 82.0492 12.4547 82.9576 12.4547C83.8535 12.4547 84.6313 12.6435 85.2908 13.0213C85.9503 13.3991 86.4418 13.8743 86.7653 14.447V12.6192H88.4825V22.6359H86.7653V20.7715C86.4293 21.3564 85.9254 21.8438 85.2534 22.2338C84.5939 22.6115 83.8224 22.8004 82.9389 22.8004C82.0306 22.8004 81.2093 22.581 80.4751 22.1424C79.741 21.7037 79.1623 21.0883 78.7393 20.2962C78.3162 19.5041 78.1046 18.6024 78.1046 17.591ZM86.7653 17.6093C86.7653 16.8537 86.6098 16.1957 86.2987 15.6352C85.9876 15.0746 85.5645 14.6481 85.0294 14.3556C84.5068 14.051 83.9282 13.8987 83.2936 13.8987C82.659 13.8987 82.0803 14.0449 81.5577 14.3374C81.0351 14.6298 80.6182 15.0563 80.3071 15.6169C79.9961 16.1774 79.8405 16.8355 79.8405 17.591C79.8405 18.3587 79.9961 19.0289 80.3071 19.6016C80.6182 20.1622 81.0351 20.5948 81.5577 20.8994C82.0803 21.1919 82.659 21.3381 83.2936 21.3381C83.9282 21.3381 84.5068 21.1919 85.0294 20.8994C85.5645 20.5948 85.9876 20.1622 86.2987 19.6016C86.6098 19.0289 86.7653 18.3648 86.7653 17.6093Z" fill="#0D775E"/>
<path d="M93.0514 14.246C93.35 13.6732 93.7731 13.2285 94.3206 12.9116C94.8806 12.5948 95.5588 12.4364 96.3551 12.4364V14.1546H95.9072C94.0033 14.1546 93.0514 15.166 93.0514 17.1888V22.6359H91.3529V12.6192H93.0514V14.246Z" fill="#0D775E"/>
<path d="M100.388 13.9901V19.8941C100.388 20.3815 100.493 20.7288 100.705 20.936C100.917 21.1309 101.284 21.2284 101.806 21.2284H103.057V22.6359H101.526C100.581 22.6359 99.8713 22.4226 99.3984 21.9961C98.9256 21.5696 98.6892 20.8689 98.6892 19.8941V13.9901H97.3639V12.6192H98.6892V10.0967H100.388V12.6192H103.057V13.9901H100.388Z" fill="#0D775E"/>
</svg>
